<?xml version="1.0" encoding="UTF-8"?>
<svg version="1.1" xmlns="http://www.w3.org/2000/svg" width="271" height="411">
<path d="M0 0 C89.43 0 178.86 0 271 0 C271 39.93 271 79.86 271 121 C268.03 121.33 265.06 121.66 262 122 C262.0309375 124.1965625 262.0309375 124.1965625 262.0625 126.4375 C262.08392007 127.95832518 262.07179964 129.48071962 262 131 C261 132 261 132 258.93359375 132.09765625 C258.10988281 132.08605469 257.28617187 132.07445312 256.4375 132.0625 C255.61121094 132.05347656 254.78492188 132.04445312 253.93359375 132.03515625 C253.29550781 132.02355469 252.65742188 132.01195312 252 132 C252.00037972 132.58037277 252.00075944 133.16074555 252.00115067 133.75870538 C252.02351694 168.1377565 252.04068059 202.51680617 252.05106533 236.89586301 C252.05231607 241.02155843 252.05361039 245.14725383 252.05493164 249.27294922 C252.05532511 250.50500395 252.05532511 250.50500395 252.05572652 251.76194867 C252.06008071 265.07059341 252.06796689 278.37923384 252.0771528 291.68787602 C252.0864963 305.33844486 252.09205709 318.98901144 252.09408849 332.63958335 C252.09546227 341.06625433 252.09980503 349.49291314 252.10791647 357.91958037 C252.1131925 363.69395063 252.11480233 369.46831458 252.11350138 375.24268708 C252.11285935 378.57678444 252.11440277 381.91084325 252.11920547 385.2449398 C252.12415409 388.85628325 252.1229939 392.46757388 252.12025452 396.07891846 C252.12462378 397.66645758 252.12462378 397.66645758 252.12908131 399.2860682 C252.12709026 400.25196618 252.12509921 401.21786416 252.12304783 402.21303177 C252.12342755 403.04689761 252.12380727 403.88076346 252.1241985 404.73989797 C252 407 252 407 251 411 C174.77 411 98.54 411 20 411 C20 319.26 20 227.52 20 133 C17.03 132.67 14.06 132.34 11 132 C9 126.375 9 126.375 9 123 C6.03 122.34 3.06 121.68 0 121 C0 81.07 0 41.14 0 0 Z " fill="#298303" transform="translate(0,0)"/>
<path d="M0 0 C42.9 0 85.8 0 130 0 C130 89.1 130 178.2 130 270 C87.1 270 44.2 270 0 270 C0 180.9 0 91.8 0 0 Z " fill="#4DE903" transform="translate(31,131)"/>
<path d="M0 0 C82.5 0 165 0 250 0 C250 33 250 66 250 100 C167.5 100 85 100 0 100 C0 67 0 34 0 0 Z " fill="#298203" transform="translate(11,11)"/>
<path d="M0 0 C89.43 0 178.86 0 271 0 C271 39.93 271 79.86 271 121 C268.03 121.33 265.06 121.66 262 122 C262.0309375 124.1965625 262.0309375 124.1965625 262.0625 126.4375 C262.08392007 127.95832518 262.07179964 129.48071962 262 131 C261 132 261 132 258.93359375 132.09765625 C258.10988281 132.08605469 257.28617187 132.07445312 256.4375 132.0625 C255.61121094 132.05347656 254.78492188 132.04445312 253.93359375 132.03515625 C253.29550781 132.02355469 252.65742188 132.01195312 252 132 C252.00037972 132.58037277 252.00075944 133.16074555 252.00115067 133.75870538 C252.02351694 168.1377565 252.04068059 202.51680617 252.05106533 236.89586301 C252.05231607 241.02155843 252.05361039 245.14725383 252.05493164 249.27294922 C252.05532511 250.50500395 252.05532511 250.50500395 252.05572652 251.76194867 C252.06008071 265.07059341 252.06796689 278.37923384 252.0771528 291.68787602 C252.0864963 305.33844486 252.09205709 318.98901144 252.09408849 332.63958335 C252.09546227 341.06625433 252.09980503 349.49291314 252.10791647 357.91958037 C252.1131925 363.69395063 252.11480233 369.46831458 252.11350138 375.24268708 C252.11285935 378.57678444 252.11440277 381.91084325 252.11920547 385.2449398 C252.12415409 388.85628325 252.1229939 392.46757388 252.12025452 396.07891846 C252.12462378 397.66645758 252.12462378 397.66645758 252.12908131 399.2860682 C252.12709026 400.25196618 252.12509921 401.21786416 252.12304783 402.21303177 C252.12342755 403.04689761 252.12380727 403.88076346 252.1241985 404.73989797 C252 407 252 407 251 411 C174.77 411 98.54 411 20 411 C20 319.26 20 227.52 20 133 C17.03 132.67 14.06 132.34 11 132 C9 126.375 9 126.375 9 123 C6.03 122.34 3.06 121.68 0 121 C0 81.07 0 41.14 0 0 Z M11 11 C11 44 11 77 11 111 C93.5 111 176 111 261 111 C261 78 261 45 261 11 C178.5 11 96 11 11 11 Z M31 131 C31 220.1 31 309.2 31 401 C100.3 401 169.6 401 241 401 C241 311.9 241 222.8 241 131 C171.7 131 102.4 131 31 131 Z " fill="#0B0E0B" transform="translate(0,0)"/>
<path d="M0 0 C82.5 0 165 0 250 0 C250 3.3 250 6.6 250 10 C203.8 10 157.6 10 110 10 C110 39.7 110 69.4 110 100 C73.7 100 37.4 100 0 100 C0 67 0 34 0 0 Z " fill="#4DE903" transform="translate(11,11)"/>
<path d="M0 0 C16.5 0 33 0 50 0 C50 89.1 50 178.2 50 270 C33.5 270 17 270 0 270 C0 266.7 0 263.4 0 260 C3.3 260 6.6 260 10 260 C10 256.7 10 253.4 10 250 C13.3 250 16.6 250 20 250 C20 246.7 20 243.4 20 240 C16.7 240 13.4 240 10 240 C10 236.7 10 233.4 10 230 C13.3 230 16.6 230 20 230 C20 226.7 20 223.4 20 220 C16.7 220 13.4 220 10 220 C10 216.7 10 213.4 10 210 C13.3 210 16.6 210 20 210 C20 206.7 20 203.4 20 200 C16.7 200 13.4 200 10 200 C10 196.7 10 193.4 10 190 C6.7 190 3.4 190 0 190 C0 186.7 0 183.4 0 180 C3.3 180 6.6 180 10 180 C10 176.7 10 173.4 10 170 C13.3 170 16.6 170 20 170 C20 166.7 20 163.4 20 160 C16.7 160 13.4 160 10 160 C10 156.7 10 153.4 10 150 C13.3 150 16.6 150 20 150 C20 146.7 20 143.4 20 140 C16.7 140 13.4 140 10 140 C10 136.7 10 133.4 10 130 C13.3 130 16.6 130 20 130 C20 126.7 20 123.4 20 120 C16.7 120 13.4 120 10 120 C10 116.7 10 113.4 10 110 C6.7 110 3.4 110 0 110 C0 106.7 0 103.4 0 100 C3.3 100 6.6 100 10 100 C10 96.7 10 93.4 10 90 C13.3 90 16.6 90 20 90 C20 86.7 20 83.4 20 80 C16.7 80 13.4 80 10 80 C10 76.7 10 73.4 10 70 C13.3 70 16.6 70 20 70 C20 66.7 20 63.4 20 60 C16.7 60 13.4 60 10 60 C10 56.7 10 53.4 10 50 C13.3 50 16.6 50 20 50 C20 46.7 20 43.4 20 40 C16.7 40 13.4 40 10 40 C10 36.7 10 33.4 10 30 C6.7 30 3.4 30 0 30 C0 26.7 0 23.4 0 20 C3.3 20 6.6 20 10 20 C10 16.7 10 13.4 10 10 C6.7 10 3.4 10 0 10 C0 6.7 0 3.4 0 0 Z " fill="#4EE705" transform="translate(191,131)"/>
<path d="M0 0 C9.9 0 19.8 0 30 0 C30 89.1 30 178.2 30 270 C20.1 270 10.2 270 0 270 C0 180.9 0 91.8 0 0 Z " fill="#288402" transform="translate(31,131)"/>
<path d="M0 0 C6.6 0 13.2 0 20 0 C20 89.1 20 178.2 20 270 C13.4 270 6.8 270 0 270 C0 180.9 0 91.8 0 0 Z " fill="#4EE806" transform="translate(141,131)"/>
<path d="M0 0 C13.2 0 26.4 0 40 0 C40 29.7 40 59.4 40 90 C26.8 90 13.6 90 0 90 C0 60.3 0 30.6 0 0 Z " fill="#298202" transform="translate(11,21)"/>
<path d="M0 0 C16.5 0 33 0 50 0 C50 26.4 50 52.8 50 80 C36.8 80 23.6 80 10 80 C10 76.7 10 73.4 10 70 C6.7 70 3.4 70 0 70 C0 66.7 0 63.4 0 60 C3.3 60 6.6 60 10 60 C10 56.7 10 53.4 10 50 C13.3 50 16.6 50 20 50 C20 46.7 20 43.4 20 40 C16.7 40 13.4 40 10 40 C10 36.7 10 33.4 10 30 C13.3 30 16.6 30 20 30 C20 26.7 20 23.4 20 20 C16.7 20 13.4 20 10 20 C10 16.7 10 13.4 10 10 C6.7 10 3.4 10 0 10 C0 6.7 0 3.4 0 0 Z " fill="#4DE903" transform="translate(201,31)"/>
<path d="M0 0 C6.6 0 13.2 0 20 0 C20 89.1 20 178.2 20 270 C17.03 270 14.06 270 11 270 C10 269 10 269 9.8758015 267.21508592 C9.87618122 266.42868512 9.87656094 265.64228432 9.87695217 264.83205318 C9.87496112 263.92786268 9.87297007 263.02367218 9.87091869 262.09208196 C9.87383153 261.0872392 9.87674437 260.08239643 9.87974548 259.04710388 C9.87889106 257.9886094 9.87803663 256.93011491 9.87715632 255.83954483 C9.87549836 252.26337444 9.88102802 248.68725011 9.88647461 245.11108398 C9.88675644 242.5592448 9.88659883 240.00740554 9.8860321 237.45556641 C9.88580378 231.94654686 9.8886553 226.43754237 9.89426994 220.92852592 C9.9023826 212.96332697 9.90499992 204.99813374 9.90625793 197.0329311 C9.90844882 184.11122491 9.91510991 171.18952503 9.92456055 158.26782227 C9.93373371 145.71248405 9.94081501 133.15714753 9.94506836 120.60180664 C9.94533108 119.82843751 9.94559381 119.05506838 9.94586449 118.25826382 C9.94716949 114.37866001 9.94843321 110.49905619 9.94967639 106.61945236 C9.96005016 74.41296362 9.97774359 42.20648279 10 10 C6.7 10 3.4 10 0 10 C0 6.7 0 3.4 0 0 Z " fill="#2A8305" transform="translate(221,131)"/>
<path d="M0 0 C3.3 0 6.6 0 10 0 C10 89.1 10 178.2 10 270 C6.7 270 3.4 270 0 270 C0 180.9 0 91.8 0 0 Z " fill="#258601" transform="translate(131,131)"/>
<path d="M0 0 C3.3 0 6.6 0 10 0 C10 89.1 10 178.2 10 270 C6.7 270 3.4 270 0 270 C0 180.9 0 91.8 0 0 Z " fill="#52E50B" transform="translate(31,131)"/>
<path d="M0 0 C0.9270238 0.00291284 1.8540476 0.00582568 2.80916303 0.00882679 C3.78598647 0.00797237 4.76280991 0.00711794 5.76923406 0.00623763 C9.06901515 0.00457986 12.36874631 0.01010903 15.66852278 0.01555592 C18.02332013 0.01583775 20.37811757 0.01568013 22.73291487 0.01511341 C29.14794795 0.01482529 35.56296252 0.0207244 41.97799128 0.02768737 C47.99617572 0.03376182 54.01436235 0.03430919 60.03254931 0.03533924 C71.95596976 0.03753008 83.87938338 0.04419101 95.80280012 0.05364186 C107.38808623 0.06281516 118.97337049 0.06989639 130.55865949 0.07414967 C131.27228871 0.07441239 131.98591793 0.07467512 132.72117228 0.0749458 C136.30109466 0.0762508 139.88101706 0.07751452 143.46093947 0.0787577 C173.17914559 0.08913129 202.8973446 0.10682458 232.61554426 0.12908131 C232.65421613 1.06880787 232.65421613 1.06880787 232.69366926 2.02751881 C232.75038801 2.84478443 232.80710676 3.66205006 232.86554426 4.50408131 C232.91195051 5.31619068 232.95835676 6.12830006 233.00616926 6.96501881 C233.20726301 7.67915943 233.40835676 8.39330006 233.61554426 9.12908131 C235.59554426 10.11908131 235.59554426 10.11908131 237.61554426 11.12908131 C155.11554426 11.12908131 72.61554426 11.12908131 -12.38445574 11.12908131 C-12.05445574 10.13908131 -11.72445574 9.14908131 -11.38445574 8.12908131 C-10.72445574 8.12908131 -10.06445574 8.12908131 -9.38445574 8.12908131 C-9.07508074 6.99470631 -8.76570574 5.86033131 -8.44695574 4.69158131 C-6.78431077 -0.88316947 -5.57035233 0.01329004 0 0 Z " fill="#010303" transform="translate(23.384455740451813,-0.12908130884170532)"/>
<path d="M0 0 C6.6 0 13.2 0 20 0 C20 26.4 20 52.8 20 80 C13.4 80 6.8 80 0 80 C0 53.6 0 27.2 0 0 Z " fill="#4DE705" transform="translate(131,31)"/>
<path d="M0 0 C6.6 0 13.2 0 20 0 C20 26.4 20 52.8 20 80 C13.4 80 6.8 80 0 80 C0 53.6 0 27.2 0 0 Z " fill="#4BE903" transform="translate(11,31)"/>
<path d="M0 0 C82.5 0 165 0 250 0 C250 3.3 250 6.6 250 10 C203.8 10 157.6 10 110 10 C110 39.7 110 69.4 110 100 C86.9 100 63.8 100 40 100 C40 70.96 40 41.92 40 12 C40.33 12 40.66 12 41 12 C41.33 40.05 41.66 68.1 42 97 C74.67 97.495 74.67 97.495 108 98 C108 68.63 108 39.26 108 9 C108.99 9 109.98 9 111 9 C111 8.34 111 7.68 111 7 C156.21 7 201.42 7 248 7 C247.01 5.02 247.01 5.02 246 3 C165.15 2.67 84.3 2.34 1 2 C1 4.64 1 7.28 1 10 C0.67 10 0.34 10 0 10 C0 6.7 0 3.4 0 0 Z " fill="#64D132" transform="translate(11,11)"/>
<path d="M0 0 C23.1 0 46.2 0 70 0 C70 89.1 70 178.2 70 270 C46.9 270 23.8 270 0 270 C0 180.9 0 91.8 0 0 Z M1 3 C1 90.45 1 177.9 1 268 C23.11 268 45.22 268 68 268 C68.33 180.88 68.66 93.76 69 4 C48.7241249 -6.13793755 23.66911751 3 1 3 Z " fill="#57DE1F" transform="translate(61,131)"/>
<path d="M0 0 C3.3 0 6.6 0 10 0 C10 89.1 10 178.2 10 270 C6.7 270 3.4 270 0 270 C0 180.9 0 91.8 0 0 Z M2 3 C2 90.45 2 177.9 2 268 C4.31 268 6.62 268 9 268 C9 180.55 9 93.1 9 3 C6.69 3 4.38 3 2 3 Z " fill="#6ACD3D" transform="translate(31,131)"/>
<path d="M0 0 C16.5 0 33 0 50 0 C50 26.4 50 52.8 50 80 C36.8 80 23.6 80 10 80 C10 76.7 10 73.4 10 70 C14.29 70 18.58 70 23 70 C21.68 70.99 20.36 71.98 19 73 C25.27 72.67 31.54 72.34 38 72 C38.33 72.99 38.66 73.98 39 75 C33.72 75 28.44 75 23 75 C23 75.66 23 76.32 23 77 C30.59 76.67 38.18 76.34 46 76 C46.33 51.58 46.66 27.16 47 2 C40.44125 2.103125 33.8825 2.20625 27.125 2.3125 C24.01989014 2.34984253 24.01989014 2.34984253 20.85205078 2.38793945 C19.21644783 2.4202159 17.58086597 2.45358769 15.9453125 2.48828125 C14.66515259 2.49764709 14.66515259 2.49764709 13.35913086 2.50720215 C10.6529773 2.53847262 10.6529773 2.53847262 7 3 C6.01 4.485 6.01 4.485 5 6 C6.32 6 7.64 6 9 6 C11.97413931 9.61145488 12.32019737 12.4105044 12 17 C14.31 17 16.62 17 19 17 C19 17.66 19 18.32 19 19 C20.32 19.33 21.64 19.66 23 20 C18.71 20 14.42 20 10 20 C10 16.7 10 13.4 10 10 C6.7 10 3.4 10 0 10 C0 6.7 0 3.4 0 0 Z " fill="#51E212" transform="translate(201,31)"/>
<path d="M0 0 C6.6 0 13.2 0 20 0 C20 89.1 20 178.2 20 270 C13.4 270 6.8 270 0 270 C0 180.9 0 91.8 0 0 Z M1 3 C1 90.45 1 177.9 1 268 C6.94 268 12.88 268 19 268 C19 180.55 19 93.1 19 3 C13.06 3 7.12 3 1 3 Z " fill="#59D729" transform="translate(141,131)"/>
<path d="M0 0 C6.6 0 13.2 0 20 0 C20 89.1 20 178.2 20 270 C17.03 270 14.06 270 11 270 C11.33 269.34 11.66 268.68 12 268 C13.98 268 15.96 268 18 268 C18 180.55 18 93.1 18 3 C12.72 3 7.44 3 2 3 C1.34 2.67 0.68 2.34 0 2 C0 1.34 0 0.68 0 0 Z " fill="#3B7326" transform="translate(221,131)"/>
<path d="M0 0 C6.6 0 13.2 0 20 0 C20 2.97 20 5.94 20 9 C20.66 9 21.32 9 22 9 C21.67 7.02 21.34 5.04 21 3 C21.66 3 22.32 3 23 3 C23.33 6.3 23.66 9.6 24 13 C21.525 12.505 21.525 12.505 19 12 C18.67 12.66 18.34 13.32 18 14 C15.9375 15.125 15.9375 15.125 14 16 C14 16.66 14 17.32 14 18 C14.99 18 15.98 18 17 18 C17.33 17.01 17.66 16.02 18 15 C18 15.66 18 16.32 18 17 C18.99 17 19.98 17 21 17 C21.44434353 19.07760625 21.85457626 21.16253049 22.25 23.25 C22.48203125 24.41015625 22.7140625 25.5703125 22.953125 26.765625 C23 30 23 30 21.046875 32.421875 C20.03367188 33.20304687 20.03367188 33.20304687 19 34 C17.35 33.34 15.7 32.68 14 32 C14.54723683 35.37462715 15.0549 37.08235 17 40 C14.69 40 12.38 40 10 40 C10 36.7 10 33.4 10 30 C6.7 30 3.4 30 0 30 C0 26.7 0 23.4 0 20 C3.3 20 6.6 20 10 20 C10 16.7 10 13.4 10 10 C6.7 10 3.4 10 0 10 C0 6.7 0 3.4 0 0 Z " fill="#50E113" transform="translate(191,131)"/>
<path d="M0 0 C23.1 0 46.2 0 70 0 C70 0.66 70 1.32 70 2 C47.23 2.33 24.46 2.66 1 3 C1 90.45 1 177.9 1 268 C23.44 268 45.88 268 69 268 C69.33 267.01 69.66 266.02 70 265 C70 266.65 70 268.3 70 270 C46.9 270 23.8 270 0 270 C0 180.9 0 91.8 0 0 Z " fill="#62D234" transform="translate(61,131)"/>
<path d="M0 0 C0.33 0 0.66 0 1 0 C1 89.1 1 178.2 1 270 C0.34 269.67 -0.32 269.34 -1 269 C-1.33 180.89 -1.66 92.78 -2 2 C-1.34 2 -0.68 2 0 2 C0 1.34 0 0.68 0 0 Z " fill="#001E00" transform="translate(30,131)"/>
<path d="M0 0 C0.99 0.33 1.98 0.66 3 1 C3 88.12 3 175.24 3 265 C2.01 265 1.02 265 0 265 C0 177.55 0 90.1 0 0 Z " fill="#51E212" transform="translate(62,134)"/>
<path d="M0 0 C80.85 0 161.7 0 245 0 C245 0.33 245 0.66 245 1 C165.14 1 85.28 1 3 1 C3.33 2.32 3.66 3.64 4 5 C8.46590705 4.88136183 12.93161173 4.75708852 17.3972168 4.62768555 C18.91507755 4.58448452 20.43298226 4.54279952 21.95092773 4.50268555 C24.13799259 4.44462188 26.32483918 4.38103344 28.51171875 4.31640625 C29.82615967 4.27974854 31.14060059 4.24309082 32.49487305 4.20532227 C35.44699698 4.03239364 38.12950496 3.67839286 41 3 C41.76996126 8.39781037 42.12255467 13.6119818 42.02172852 19.06835938 C42.01212097 19.83030609 42.00251343 20.59225281 41.99261475 21.37728882 C41.95994458 23.86621297 41.91949335 26.35494348 41.87890625 28.84375 C41.85457376 30.58108868 41.83073182 32.31843429 41.80735779 34.05578613 C41.74482796 38.60632283 41.6756749 43.1567352 41.60510254 47.70715332 C41.53413642 52.35939928 41.46948927 57.01173268 41.40429688 61.6640625 C41.27568603 70.77613779 41.14007207 79.88809418 41 89 C40.67 89 40.34 89 40 89 C39.67 62.27 39.34 35.54 39 8 C26.13 8 13.26 8 0 8 C0 5.36 0 2.72 0 0 Z " fill="#55DF14" transform="translate(12,13)"/>
<path d="M0 0 C0.33 0.66 0.66 1.32 1 2 C-9.62099092 4.11211542 -19.84543249 4.21098188 -30.625 4.0625 C-33.07464775 4.03478905 -35.52423602 4.01014986 -37.97396851 3.99131775 C-39.48429824 3.97914329 -40.99459713 3.9616221 -42.50479126 3.93800354 C-45.62789269 3.90794475 -48.01115443 4.00371814 -51 5 C-52.33568021 4.67619874 -53.66923011 4.34342449 -55 4 C-55.66 4.33 -56.32 4.66 -57 5 C-59.66494085 4.96230225 -62.28105875 4.85805428 -64.9375 4.6875 C-65.66646484 4.65205078 -66.39542969 4.61660156 -67.14648438 4.58007812 C-70.87475266 4.35111939 -72.83243159 4.11171227 -76 2 C-76 2.66 -76 3.32 -76 4 C-92.15980794 4.02339041 -108.31961036 4.04100932 -124.47943115 4.05181217 C-131.98320075 4.05696209 -139.48695982 4.0639799 -146.99072266 4.07543945 C-153.53320606 4.08542618 -160.07568183 4.09186291 -166.61817265 4.09408849 C-170.08034778 4.09538883 -173.54250108 4.09843172 -177.00466919 4.10573006 C-180.8755127 4.11382324 -184.74633511 4.11398857 -188.6171875 4.11352539 C-189.75726761 4.11712067 -190.89734772 4.12071594 -192.07197571 4.12442017 C-197.79426993 4.11701851 -203.36502279 4.05878063 -209 3 C-209.33 2.34 -209.66 1.68 -210 1 C-140.7 0.67 -71.4 0.34 0 0 Z " fill="#001900" transform="translate(241,400)"/>
<path d="M0 0 C3.3 0 6.6 0 10 0 C10 3.3 10 6.6 10 10 C13.3 10 16.6 10 20 10 C20.33 95.8 20.66 181.6 21 270 C7.47 270 -6.06 270 -20 270 C-20 266.7 -20 263.4 -20 260 C-17.03 260 -14.06 260 -11 260 C-11 260.33 -11 260.66 -11 261 C-13.64 261 -16.28 261 -19 261 C-19 263.31 -19 265.62 -19 268 C-6.46 268 6.08 268 19 268 C19 183.85 19 99.7 19 13 C15.7 12.67 12.4 12.34 9 12 C9 11.34 9 10.68 9 10 C8.34 10 7.68 10 7 10 C6.67 10.99 6.34 11.98 6 13 C6.33 9.7 6.66 6.4 7 3 C5.02 3 3.04 3 1 3 C1.33 4.98 1.66 6.96 2 9 C1.34 9 0.68 9 0 9 C0 6.03 0 3.06 0 0 Z " fill="#5BD52A" transform="translate(211,131)"/>
<path d="M0 0 C6.6 0 13.2 0 20 0 C20 26.4 20 52.8 20 80 C13.4 80 6.8 80 0 80 C0 53.6 0 27.2 0 0 Z M2 2 C1.84699498 11.76144264 1.69823329 21.52292422 1.5570364 31.28454494 C1.49130828 35.81677696 1.42368717 40.34896457 1.35180664 44.88110352 C1.28256515 49.25116959 1.2182089 53.6212823 1.15730476 57.99147224 C1.1331451 59.66253353 1.10719596 61.33356988 1.07946587 63.00457573 C1.04106054 65.33691378 1.00889911 67.66925771 0.97827148 70.00170898 C0.96532547 70.6994191 0.95237946 71.39712921 0.93904114 72.11598206 C0.92091992 73.74401399 0.95486888 75.37249284 1 77 C2.12899299 78.35435584 2.12899299 78.35435584 5.08984375 78.1328125 C6.35957031 78.13023438 7.62929687 78.12765625 8.9375 78.125 C10.83822266 78.12886719 10.83822266 78.12886719 12.77734375 78.1328125 C15.89154889 78.22506069 15.89154889 78.22506069 18 77 C18 52.25 18 27.5 18 2 C12.72 2 7.44 2 2 2 Z " fill="#55DE1F" transform="translate(131,31)"/>
<path d="M0 0 C6.6 0 13.2 0 20 0 C20 26.4 20 52.8 20 80 C13.4 80 6.8 80 0 80 C0 53.6 0 27.2 0 0 Z M2 1 C1.84690754 10.48340109 1.69813604 19.96684266 1.5570364 29.45042992 C1.49134877 33.85372 1.42374458 38.25696349 1.35180664 42.66015625 C1.28249232 46.90703117 1.21815192 51.15395463 1.15730476 55.40095901 C1.13317199 57.0237465 1.10722685 58.64650805 1.07946587 60.26923752 C1.0409802 62.53670951 1.00885676 64.80418699 0.97827148 67.07177734 C0.95828598 68.36417328 0.93830048 69.65656921 0.91770935 70.98812866 C0.78560314 73.92338815 0.78560314 73.92338815 2 76 C2.66 76 3.32 76 4 76 C4 76.66 4 77.32 4 78 C8.62 78 13.24 78 18 78 C18 52.59 18 27.18 18 1 C12.72 1 7.44 1 2 1 Z " fill="#5DD727" transform="translate(11,31)"/>
<path d="M0 0 C16.5 0 33 0 50 0 C50 26.4 50 52.8 50 80 C36.8 80 23.6 80 10 80 C10 76.7 10 73.4 10 70 C12.97 70 15.94 70 19 70 C19 70.33 19 70.66 19 71 C15.535 71.495 15.535 71.495 12 72 C12 73.65 12 75.3 12 77 C23.88 77.33 35.76 77.66 48 78 C48.33 52.59 48.66 27.18 49 1 C33.49 1 17.98 1 2 1 C2 3.31 2 5.62 2 8 C4.01822917 7.90234375 6.03645833 7.8046875 8.0546875 7.70703125 C8.69664062 7.80371094 9.33859375 7.90039062 10 8 C12.29013653 11.4352048 12.17842973 12.985331 12 17 C14.31 17 16.62 17 19 17 C19 17.66 19 18.32 19 19 C20.32 19.33 21.64 19.66 23 20 C18.71 20 14.42 20 10 20 C10 16.7 10 13.4 10 10 C6.7 10 3.4 10 0 10 C0 6.7 0 3.4 0 0 Z " fill="#5BD929" transform="translate(201,31)"/>
<path d="M0 0 C0.57169147 0.16257736 1.14338294 0.32515473 1.73239839 0.49265867 C4.00337226 1.00075449 5.95879134 1.12208388 8.28162575 1.1174612 C9.13482167 1.11821886 9.98801759 1.11897651 10.86706793 1.11975712 C11.79955276 1.11548003 12.73203759 1.11120295 13.69277954 1.10679626 C14.68708933 1.10623956 15.68139912 1.10568285 16.70583951 1.10510927 C20.04691886 1.10206643 23.38793897 1.09187876 26.72900391 1.08178711 C29.12040647 1.078232 31.51180977 1.07514573 33.9032135 1.07249451 C39.05695084 1.06593782 44.21067093 1.05637486 49.36439896 1.04459953 C56.81800319 1.02762999 64.27160348 1.01807224 71.72522275 1.0107208 C83.82105163 0.99877515 95.91687431 0.98382481 108.01269531 0.96557617 C108.73662808 0.96448605 109.46056084 0.96339593 110.20643096 0.96227277 C120.48845012 0.94665009 130.77046181 0.92805433 141.05247371 0.9082749 C141.77701285 0.90688158 142.501552 0.90548827 143.24804688 0.90405273 C143.9717051 0.9026592 144.69536333 0.90126567 145.44095059 0.89982992 C157.49379458 0.87682 169.5466337 0.86148898 181.59949625 0.85249335 C188.3690852 0.84715803 195.13862548 0.83786578 201.90819168 0.81910515 C208.26927413 0.80170534 214.63030189 0.79334645 220.99140739 0.79207802 C223.3320098 0.78992179 225.67261183 0.78430039 228.01319695 0.7750473 C231.19593226 0.76294694 234.37843666 0.76299851 237.56118774 0.76622009 C238.49813402 0.75971229 239.43508029 0.75320449 240.40041888 0.74649948 C241.2483993 0.74986488 242.09637973 0.75323027 242.97005653 0.75669765 C243.70530512 0.75539614 244.44055372 0.75409463 245.19808257 0.75275367 C247 1 247 1 249 3 C166.5 3 84 3 -1 3 C-0.67 2.01 -0.34 1.02 0 0 Z " fill="#002B00" transform="translate(12,8)"/>
<path d="M0 0 C0.33 0 0.66 0 1 0 C1.33 28.05 1.66 56.1 2 85 C35.66 85.495 35.66 85.495 70 86 C70 86.66 70 87.32 70 88 C46.9 88 23.8 88 0 88 C0 58.96 0 29.92 0 0 Z " fill="#62CF35" transform="translate(51,23)"/>
<path d="M0 0 C6.6 0 13.2 0 20 0 C20 3.3 20 6.6 20 10 C13.4 10 6.8 10 0 10 C0 6.7 0 3.4 0 0 Z " fill="#28820C" transform="translate(191,131)"/>
<path d="M0 0 C0.66 0 1.32 0 2 0 C2 29.7 2 59.4 2 90 C-1.3 90 -4.6 90 -8 90 C-8 89.67 -8 89.34 -8 89 C-6.02 89 -4.04 89 -2 89 C-2.33 88.01 -2.66 87.02 -3 86 C-2.01 86 -1.02 86 0 86 C0 57.62 0 29.24 0 0 Z " fill="#3C6F28" transform="translate(259,21)"/>
<path d="M0 0 C3.3 0 6.6 0 10 0 C10 3.3 10 6.6 10 10 C6.7 10 3.4 10 0 10 C0 13.3 0 16.6 0 20 C3.3 20 6.6 20 10 20 C10 23.3 10 26.6 10 30 C3.565 30.495 3.565 30.495 -3 31 C-3 30.01 -3 29.02 -3 28 C-2.01 28 -1.02 28 0 28 C0 27.34 0 26.68 0 26 C0.33 25.67 0.66 25.34 1 25 C0.01 24.67 -0.98 24.34 -2 24 C-2 23.34 -2 22.68 -2 22 C-2.33 21.01 -2.66 20.02 -3 19 C-3.09267588 17.29367352 -3.12998202 15.58383413 -3.125 13.875 C-3.12757813 12.98554688 -3.13015625 12.09609375 -3.1328125 11.1796875 C-3 9 -3 9 -2 8 C-0.48071962 7.92820036 1.04167482 7.91607993 2.5625 7.9375 C3.38878906 7.94652344 4.21507812 7.95554688 5.06640625 7.96484375 C5.70449219 7.97644531 6.34257812 7.98804688 7 8 C7.33 6.02 7.66 4.04 8 2 C7.401875 2.309375 6.80375 2.61875 6.1875 2.9375 C4 4 4 4 1 5 C0.67 3.35 0.34 1.7 0 0 Z " fill="#238801" transform="translate(191,221)"/>
<path d="M0 0 C5.28 0 10.56 0 16 0 C16 25.41 16 50.82 16 77 C14.68 76.67 13.36 76.34 12 76 C12.99 76 13.98 76 15 76 C14.75317223 74.73203079 14.75317223 74.73203079 14.50135803 73.43844604 C13.9826928 69.88130267 13.91904744 66.5777887 13.97827148 62.98486328 C13.98787903 62.31099075 13.99748657 61.63711823 14.00738525 60.94282532 C14.04013159 58.73520642 14.08055487 56.52780086 14.12109375 54.3203125 C14.14541876 52.78189831 14.16926109 51.24347643 14.19264221 49.70504761 C14.25524644 45.67068662 14.3243791 41.63646327 14.39489746 37.60223389 C14.46579564 33.47967761 14.5304837 29.35702433 14.59570312 25.234375 C14.72441016 17.15614032 14.86059235 9.07805711 15 1 C10.38 1 5.76 1 1 1 C1 24.76 1 48.52 1 73 C4.96 72.01 4.96 72.01 9 71 C9.66 71.99 10.32 72.98 11 74 C7.37 74 3.74 74 0 74 C-1.47608282 71.04783436 -1.07337333 68.45736563 -1.02172852 65.16357422 C-1.01212097 64.46102509 -1.00251343 63.75847595 -0.99261475 63.03463745 C-0.95958161 60.70788689 -0.91926588 58.38132157 -0.87890625 56.0546875 C-0.85460934 54.44329485 -0.83076557 52.83189531 -0.80735779 51.2204895 C-0.74447413 46.97564861 -0.67541965 42.73092945 -0.60510254 38.48620605 C-0.53445772 34.1562251 -0.46961772 29.82615771 -0.40429688 25.49609375 C-0.27522933 16.9972983 -0.1391099 8.49863701 0 0 Z " fill="#51DF0D" transform="translate(13,32)"/>
<path d="M0 0 C44.55 0 89.1 0 135 0 C134.67 0.99 134.34 1.98 134 3 C133.01 2.67 132.02 2.34 131 2 C129.39447481 1.90792632 127.78540855 1.87209181 126.17724609 1.87060547 C125.19968353 1.86745331 124.22212097 1.86430115 123.2149353 1.86105347 C122.16174103 1.8630777 121.10854675 1.86510193 120.0234375 1.8671875 C118.40195297 1.86575241 118.40195297 1.86575241 116.74771118 1.86428833 C114.46299176 1.8636077 112.1782704 1.86545386 109.89355469 1.86962891 C106.38211771 1.87498913 102.87080804 1.86967462 99.359375 1.86328125 C97.14322888 1.86394185 94.92708284 1.86522263 92.7109375 1.8671875 C91.65369476 1.86516327 90.59645203 1.86313904 89.50717163 1.86105347 C88.05028427 1.86578171 88.05028427 1.86578171 86.56396484 1.87060547 C85.27514908 1.87179886 85.27514908 1.87179886 83.96029663 1.87301636 C81.99629808 1.78372896 81.99629808 1.78372896 81 3 C78.83519203 3.0989294 76.66706215 3.129711 74.5 3.125 C73.3140625 3.12757812 72.128125 3.13015625 70.90625 3.1328125 C68 3 68 3 67 2 C65.09356323 1.9007993 63.1834295 1.87200642 61.27441406 1.87060547 C59.43680511 1.86587723 59.43680511 1.86587723 57.56207275 1.86105347 C56.21325647 1.86284404 54.86444052 1.86489519 53.515625 1.8671875 C52.13897688 1.86651413 50.76232887 1.86554383 49.38568115 1.86428833 C46.49376295 1.86281094 43.60187556 1.8649659 40.70996094 1.86962891 C37.01002653 1.8753049 33.31016499 1.87206104 29.61023331 1.86605644 C26.76372738 1.86243368 23.91723857 1.86359767 21.07073212 1.86618423 C19.70723207 1.86684987 18.34373045 1.8660378 16.98023224 1.86370468 C15.0678765 1.86115245 13.1555153 1.86573504 11.24316406 1.87060547 C10.15585999 1.87140106 9.06855591 1.87219666 7.94830322 1.87301636 C5.18785752 1.99190896 2.68610301 2.37371923 0 3 C0 2.01 0 1.02 0 0 Z " fill="#218F00" transform="translate(124,21)"/>
<path d="M0 0 C0.66 0 1.32 0 2 0 C2 3.96 2 7.92 2 12 C5.3 12 8.6 12 12 12 C12 15.3 12 18.6 12 22 C5.565 22.495 5.565 22.495 -1 23 C-1 22.01 -1 21.02 -1 20 C-0.01 20 0.98 20 2 20 C2 19.34 2 18.68 2 18 C2.33 17.67 2.66 17.34 3 17 C2.01 16.67 1.02 16.34 0 16 C0 15.34 0 14.68 0 14 C-0.495 13.38125 -0.99 12.7625 -1.5 12.125 C-3 10 -3 10 -3 6 C-2.34 6 -1.68 6 -1 6 C-1.0309375 4.7934375 -1.0309375 4.7934375 -1.0625 3.5625 C-1 1 -1 1 0 0 Z " fill="#238701" transform="translate(189,149)"/>
<path d="M0 0 C6.27 0 12.54 0 19 0 C19 0.33 19 0.66 19 1 C13.06 1 7.12 1 1 1 C1.33 26.08 1.66 51.16 2 77 C7.94 77.33 13.88 77.66 20 78 C20 78.66 20 79.32 20 80 C13.4 80 6.8 80 0 80 C0 53.6 0 27.2 0 0 Z " fill="#5ED230" transform="translate(131,31)"/>
<path d="M0 0 C11.88 0 23.76 0 36 0 C36 28.71 36 57.42 36 87 C35.01 87 34.02 87 33 87 C33 85.68 33 84.36 33 83 C33.66 83 34.32 83 35 83 C34.98525131 82.07371796 34.97050262 81.14743591 34.95530701 80.19308472 C34.81711978 71.45363807 34.68416002 62.71413077 34.5570364 53.97451591 C34.49150128 49.48165853 34.42396219 44.98885008 34.35180664 40.49609375 C34.28221626 36.15842836 34.21793788 31.82071349 34.15730476 27.48291397 C34.13327325 25.82993855 34.10734439 24.17698957 34.07946587 22.52407455 C34.04067482 20.20473102 34.00869824 17.88538427 33.97827148 15.56591797 C33.95828598 14.24687469 33.93830048 12.92783142 33.91770935 11.56881714 C34 8 34 8 35 2 C23.45 1.67 11.9 1.34 0 1 C0 0.67 0 0.34 0 0 Z " fill="#209200" transform="translate(15,21)"/>
<path d="M0 0 C0.66 0 1.32 0 2 0 C2.08121924 1.60332791 2.13929134 3.20784026 2.1875 4.8125 C2.22230469 5.70582031 2.25710937 6.59914063 2.29296875 7.51953125 C1.95081002 10.41647515 1.24606427 11.22555028 -1 13 C-0.34 13.33 0.32 13.66 1 14 C1 15.32 1 16.64 1 18 C1.66 18.33 2.32 18.66 3 19 C-1.29 19 -5.58 19 -10 19 C-10 15.7 -10 12.4 -10 9 C-6.7 9 -3.4 9 0 9 C0 6.03 0 3.06 0 0 Z " fill="#53E413" transform="translate(221,72)"/>
<path d="M0 0 C0.66 0 1.32 0 2 0 C2.08082094 1.95766281 2.13910778 3.91626728 2.1875 5.875 C2.22230469 6.96554687 2.25710937 8.05609375 2.29296875 9.1796875 C2.19628906 10.11039062 2.09960938 11.04109375 2 12 C-1 14 -1 14 -3.125 14.4375 C-3.74375 14.623125 -4.3625 14.80875 -5 15 C-5.33 15.99 -5.66 16.98 -6 18 C-3.36 18 -0.72 18 2 18 C3.35015859 22.05047576 2.62084998 24.7920168 2 29 C1.34 29 0.68 29 0 29 C0 26.03 0 23.06 0 20 C-3.3 20 -6.6 20 -10 20 C-10 16.7 -10 13.4 -10 10 C-6.7 10 -3.4 10 0 10 C0 6.7 0 3.4 0 0 Z " fill="#52E315" transform="translate(211,291)"/>
<path d="M0 0 C0.66 0 1.32 0 2 0 C2.08082094 1.95766281 2.13910778 3.91626728 2.1875 5.875 C2.22230469 6.96554688 2.25710937 8.05609375 2.29296875 9.1796875 C2.19628906 10.11039063 2.09960938 11.04109375 2 12 C-1 14 -1 14 -3.125 14.4375 C-3.74375 14.623125 -4.3625 14.80875 -5 15 C-5.33 15.99 -5.66 16.98 -6 18 C-3.36 18 -0.72 18 2 18 C3.35015859 22.05047576 2.62084998 24.7920168 2 29 C1.34 29 0.68 29 0 29 C0 26.03 0 23.06 0 20 C-3.3 20 -6.6 20 -10 20 C-10 16.7 -10 13.4 -10 10 C-6.7 10 -3.4 10 0 10 C0 6.7 0 3.4 0 0 Z " fill="#52E315" transform="translate(211,211)"/>
<path d="M0 0 C2.10388569 -0.05402274 4.20816714 -0.09280256 6.3125 -0.125 C8.07013672 -0.15980469 8.07013672 -0.15980469 9.86328125 -0.1953125 C13 0 13 0 16 2 C16.2864952 4.60287362 16.37848245 6.96705374 16.34057617 9.57080078 C16.34123329 10.74166733 16.34123329 10.74166733 16.34190369 11.93618774 C16.33980941 14.52281489 16.31644883 17.10879824 16.29296875 19.6953125 C16.28737506 21.48607021 16.28310389 23.2768325 16.28010559 25.06759644 C16.26863895 29.78595608 16.23915625 34.50403964 16.20599365 39.22229004 C16.17533187 44.03487411 16.1616086 48.8475027 16.14648438 53.66015625 C16.11428819 63.10689228 16.06306998 72.5534232 16 82 C15.67 82 15.34 82 15 82 C15 56.26 15 30.52 15 4 C9.06 4 3.12 4 -3 4 C-3 3.67 -3 3.34 -3 3 C2.94 2.505 2.94 2.505 9 2 C6.03 1.67 3.06 1.34 0 1 C0 0.67 0 0.34 0 0 Z " fill="#228F00" transform="translate(16,27)"/>
<path d="M0 0 C0.33 0 0.66 0 1 0 C1.33 25.08 1.66 50.16 2 76 C2.66 76 3.32 76 4 76 C4.33 76.66 4.66 77.32 5 78 C7.54941373 78.31241371 10.00361513 78.51303421 12.5625 78.625 C13.27341797 78.66367188 13.98433594 78.70234375 14.71679688 78.7421875 C16.47742425 78.83671783 18.23867728 78.91945817 20 79 C20 79.33 20 79.66 20 80 C13.4 80 6.8 80 0 80 C0 53.6 0 27.2 0 0 Z " fill="#73BD53" transform="translate(11,31)"/>
<path d="M0 0 C6.93 0 13.86 0 21 0 C21 0.33 21 0.66 21 1 C15.06 1 9.12 1 3 1 C3 2.32 3 3.64 3 5 C14.55 5.33 26.1 5.66 38 6 C36 8 36 8 32.46826172 8.22705078 C30.95536669 8.22673363 29.44244912 8.21540633 27.9296875 8.1953125 C27.13345978 8.1924826 26.33723206 8.18965271 25.51687622 8.18673706 C22.96943237 8.1755264 20.42233789 8.15042062 17.875 8.125 C16.14974465 8.11497133 14.42448381 8.10584528 12.69921875 8.09765625 C8.46601086 8.07558422 4.2330647 8.04104867 0 8 C0 5.36 0 2.72 0 0 Z " fill="#59DA20" transform="translate(12,13)"/>
<path d="M0 0 C3.3 0 6.6 0 10 0 C10 3.3 10 6.6 10 10 C6.7 10 3.4 10 0 10 C0 6.7 0 3.4 0 0 Z " fill="#4FE30F" transform="translate(191,371)"/>
<path d="M0 0 C3.3 0 6.6 0 10 0 C10 3.3 10 6.6 10 10 C6.7 10 3.4 10 0 10 C0 6.7 0 3.4 0 0 Z " fill="#1D8F00" transform="translate(201,351)"/>
<path d="M0 0 C3.3 0 6.6 0 10 0 C10 3.3 10 6.6 10 10 C6.7 10 3.4 10 0 10 C0 6.7 0 3.4 0 0 Z " fill="#54E21A" transform="translate(191,351)"/>
<path d="M0 0 C3.3 0 6.6 0 10 0 C10 3.3 10 6.6 10 10 C6.7 10 3.4 10 0 10 C0 6.7 0 3.4 0 0 Z " fill="#53DF1A" transform="translate(191,331)"/>
<path d="M0 0 C3.3 0 6.6 0 10 0 C10 3.3 10 6.6 10 10 C6.7 10 3.4 10 0 10 C0 6.7 0 3.4 0 0 Z " fill="#59D925" transform="translate(191,311)"/>
<path d="M0 0 C3.3 0 6.6 0 10 0 C10 3.3 10 6.6 10 10 C6.7 10 3.4 10 0 10 C0 6.7 0 3.4 0 0 Z " fill="#1D8F00" transform="translate(201,311)"/>
<path d="M0 0 C3.3 0 6.6 0 10 0 C10 3.3 10 6.6 10 10 C6.7 10 3.4 10 0 10 C0 6.7 0 3.4 0 0 Z " fill="#4FE30F" transform="translate(191,291)"/>
<path d="M0 0 C3.3 0 6.6 0 10 0 C10 3.3 10 6.6 10 10 C6.7 10 3.4 10 0 10 C0 6.7 0 3.4 0 0 Z " fill="#1D8F00" transform="translate(201,271)"/>
<path d="M0 0 C3.3 0 6.6 0 10 0 C10 3.3 10 6.6 10 10 C6.7 10 3.4 10 0 10 C0 6.7 0 3.4 0 0 Z " fill="#54E21A" transform="translate(191,271)"/>
<path d="M0 0 C3.3 0 6.6 0 10 0 C10 3.3 10 6.6 10 10 C6.7 10 3.4 10 0 10 C0 6.7 0 3.4 0 0 Z " fill="#1D8D01" transform="translate(201,251)"/>
<path d="M0 0 C3.3 0 6.6 0 10 0 C10 3.3 10 6.6 10 10 C6.7 10 3.4 10 0 10 C0 6.7 0 3.4 0 0 Z " fill="#53DF1A" transform="translate(191,251)"/>
<path d="M0 0 C3.3 0 6.6 0 10 0 C10 3.3 10 6.6 10 10 C6.7 10 3.4 10 0 10 C0 6.7 0 3.4 0 0 Z " fill="#59D925" transform="translate(191,231)"/>
<path d="M0 0 C3.3 0 6.6 0 10 0 C10 3.3 10 6.6 10 10 C6.7 10 3.4 10 0 10 C0 6.7 0 3.4 0 0 Z " fill="#1D8F00" transform="translate(201,231)"/>
<path d="M0 0 C3.3 0 6.6 0 10 0 C10 3.3 10 6.6 10 10 C6.7 10 3.4 10 0 10 C0 6.7 0 3.4 0 0 Z " fill="#1D8E00" transform="translate(201,211)"/>
<path d="M0 0 C3.3 0 6.6 0 10 0 C10 3.3 10 6.6 10 10 C6.7 10 3.4 10 0 10 C0 6.7 0 3.4 0 0 Z " fill="#4FE30F" transform="translate(191,211)"/>
<path d="M0 0 C3.3 0 6.6 0 10 0 C10 3.3 10 6.6 10 10 C6.7 10 3.4 10 0 10 C0 6.7 0 3.4 0 0 Z " fill="#1D8F00" transform="translate(201,191)"/>
<path d="M0 0 C3.3 0 6.6 0 10 0 C10 3.3 10 6.6 10 10 C6.7 10 3.4 10 0 10 C0 6.7 0 3.4 0 0 Z " fill="#54E21A" transform="translate(191,191)"/>
<path d="M0 0 C3.3 0 6.6 0 10 0 C10 3.3 10 6.6 10 10 C6.7 10 3.4 10 0 10 C0 6.7 0 3.4 0 0 Z " fill="#1D8D01" transform="translate(201,171)"/>
<path d="M0 0 C3.3 0 6.6 0 10 0 C10 3.3 10 6.6 10 10 C6.7 10 3.4 10 0 10 C0 6.7 0 3.4 0 0 Z " fill="#53DF1A" transform="translate(191,171)"/>
<path d="M0 0 C3.3 0 6.6 0 10 0 C10 3.3 10 6.6 10 10 C6.7 10 3.4 10 0 10 C0 6.7 0 3.4 0 0 Z " fill="#59D926" transform="translate(191,151)"/>
<path d="M0 0 C3.3 0 6.6 0 10 0 C10 3.3 10 6.6 10 10 C6.7 10 3.4 10 0 10 C0 6.7 0 3.4 0 0 Z " fill="#1E8F00" transform="translate(201,151)"/>
<path d="M0 0 C3.3 0 6.6 0 10 0 C10 3.3 10 6.6 10 10 C6.7 10 3.4 10 0 10 C0 6.7 0 3.4 0 0 Z " fill="#5AD825" transform="translate(191,131)"/>
<path d="M0 0 C3.3 0 6.6 0 10 0 C10 3.3 10 6.6 10 10 C6.7 10 3.4 10 0 10 C0 6.7 0 3.4 0 0 Z " fill="#5BD82B" transform="translate(201,91)"/>
<path d="M0 0 C3.3 0 6.6 0 10 0 C10 3.3 10 6.6 10 10 C6.7 10 3.4 10 0 10 C0 6.7 0 3.4 0 0 Z " fill="#1F9100" transform="translate(211,91)"/>
<path d="M0 0 C3.3 0 6.6 0 10 0 C10 3.3 10 6.6 10 10 C6.7 10 3.4 10 0 10 C0 6.7 0 3.4 0 0 Z " fill="#228D01" transform="translate(211,71)"/>
<path d="M0 0 C3.3 0 6.6 0 10 0 C10 3.3 10 6.6 10 10 C6.7 10 3.4 10 0 10 C0 6.7 0 3.4 0 0 Z " fill="#5AD825" transform="translate(201,71)"/>
<path d="M0 0 C3.3 0 6.6 0 10 0 C10 3.3 10 6.6 10 10 C6.7 10 3.4 10 0 10 C0 6.7 0 3.4 0 0 Z " fill="#1C9001" transform="translate(211,51)"/>
<path d="M0 0 C3.3 0 6.6 0 10 0 C10 3.3 10 6.6 10 10 C6.7 10 3.4 10 0 10 C0 6.7 0 3.4 0 0 Z " fill="#55E11C" transform="translate(201,51)"/>
<path d="M0 0 C2.97 0 5.94 0 9 0 C9 0.33 9 0.66 9 1 C6.69 1.33 4.38 1.66 2 2 C2 3.65 2 5.3 2 7 C20.81 7.495 20.81 7.495 40 8 C40 8.66 40 9.32 40 10 C26.8 10 13.6 10 0 10 C0 6.7 0 3.4 0 0 Z " fill="#65CD3F" transform="translate(211,101)"/>
<path d="M0 0 C0.99 0 1.98 0 3 0 C3.33 2.97 3.66 5.94 4 9 C3.34 9 2.68 9 2 9 C1.87625 9.556875 1.7525 10.11375 1.625 10.6875 C0.94023145 13.22114364 0.00866237 15.57921032 -1 18 C-3.64 18 -6.28 18 -9 18 C-9 15.69 -9 13.38 -9 11 C-6.36 10.67 -3.72 10.34 -1 10 C-0.67 6.7 -0.34 3.4 0 0 Z " fill="#52E410" transform="translate(201,381)"/>
<path d="M0 0 C3.63 0 7.26 0 11 0 C11 3.3 11 6.6 11 10 C7.37 10 3.74 10 0 10 C0.66 9.67 1.32 9.34 2 9 C1.51515724 4.35413108 1.51515724 4.35413108 0 0 Z " fill="#1E8901" transform="translate(200,41)"/>
<path d="M0 0 C2 2 2 2 2.23377991 4.96044922 C2.22632248 6.22904785 2.21886505 7.49764648 2.21118164 8.8046875 C2.2098674 9.50402405 2.20855316 10.2033606 2.2071991 10.92388916 C2.20069535 13.24106245 2.18025747 15.55790823 2.16015625 17.875 C2.15388797 19.48160444 2.14864718 21.08821318 2.14439392 22.69482422 C2.13107323 26.92902674 2.10663191 31.16308581 2.07904053 35.3972168 C2.03596746 42.17510621 2.00624076 48.95303457 1.9829998 55.73101807 C1.97275078 58.10312178 1.95570231 60.4751096 1.93800354 62.84716797 C1.93117714 64.29654842 1.92456837 65.74592991 1.91821289 67.1953125 C1.90995987 68.46391113 1.90170685 69.73250977 1.89320374 71.03955078 C1.79263299 73.93083096 1.79263299 73.93083096 3 76 C2.505 76.99 2.505 76.99 2 78 C1.34 78 0.68 78 0 78 C0 52.26 0 26.52 0 0 Z " fill="#209200" transform="translate(251,31)"/>
<path d="M0 0 C2.27864583 0.06510417 4.55729167 0.13020833 6.8359375 0.1953125 C6.8359375 3.4953125 6.8359375 6.7953125 6.8359375 10.1953125 C3.5359375 10.1953125 0.2359375 10.1953125 -3.1640625 10.1953125 C-2.1640625 8.1953125 -2.1640625 8.1953125 -0.1640625 5.1953125 C-1.1540625 5.1953125 -2.1440625 5.1953125 -3.1640625 5.1953125 C-3.4940625 4.2053125 -3.8240625 3.2153125 -4.1640625 2.1953125 C-2.1640625 0.1953125 -2.1640625 0.1953125 0 0 Z M-1.1640625 1.1953125 C-1.4940625 2.1853125 -1.8240625 3.1753125 -2.1640625 4.1953125 C-1.1740625 4.5253125 -0.1840625 4.8553125 0.8359375 5.1953125 C1.1659375 4.5353125 1.4959375 3.8753125 1.8359375 3.1953125 C1.5059375 2.5353125 1.1759375 1.8753125 0.8359375 1.1953125 C0.1759375 1.1953125 -0.4840625 1.1953125 -1.1640625 1.1953125 Z " fill="#238B02" transform="translate(204.1640625,80.8046875)"/>
<path d="M0 0 C2 2 2 2 2.125 5.125 C2.08375 6.07375 2.0425 7.0225 2 8 C4.01822917 7.90234375 6.03645833 7.8046875 8.0546875 7.70703125 C8.69664062 7.80371094 9.33859375 7.90039062 10 8 C12.29013653 11.4352048 12.17842973 12.985331 12 17 C14.31 17 16.62 17 19 17 C19 17.66 19 18.32 19 19 C20.32 19.33 21.64 19.66 23 20 C18.71 20 14.42 20 10 20 C10 16.7 10 13.4 10 10 C6.7 10 3.4 10 0 10 C0 6.7 0 3.4 0 0 Z " fill="#56DC1F" transform="translate(201,31)"/>
<path d="M0 0 C3.3 0 6.6 0 10 0 C10 3.3 10 6.6 10 10 C6.7 10 3.4 10 0 10 C0 12.64 0 15.28 0 18 C-0.99 18 -1.98 18 -3 18 C-4.125 11.375 -4.125 11.375 -3 8 C-1.4375 6.3125 -1.4375 6.3125 0 5 C0.66 5.33 1.32 5.66 2 6 C1.67 6.99 1.34 7.98 1 9 C2.98 9 4.96 9 7 9 C7.33 6.36 7.66 3.72 8 1 C5.36 1 2.72 1 0 1 C0 0.67 0 0.34 0 0 Z " fill="#248C01" transform="translate(191,361)"/>
<path d="M0 0 C3.3 0 6.6 0 10 0 C10 3.3 10 6.6 10 10 C6.7 10 3.4 10 0 10 C0 12.64 0 15.28 0 18 C-0.99 18 -1.98 18 -3 18 C-4.125 11.375 -4.125 11.375 -3 8 C-1.4375 6.3125 -1.4375 6.3125 0 5 C0.66 5.33 1.32 5.66 2 6 C1.67 6.99 1.34 7.98 1 9 C2.98 9 4.96 9 7 9 C7.33 6.36 7.66 3.72 8 1 C5.36 1 2.72 1 0 1 C0 0.67 0 0.34 0 0 Z " fill="#248C01" transform="translate(191,281)"/>
<path d="M0 0 C3.3 0 6.6 0 10 0 C10 3.3 10 6.6 10 10 C6.7 10 3.4 10 0 10 C0 12.64 0 15.28 0 18 C-0.99 18 -1.98 18 -3 18 C-4.125 11.375 -4.125 11.375 -3 8 C-1.4375 6.3125 -1.4375 6.3125 0 5 C0.66 5.33 1.32 5.66 2 6 C1.67 6.99 1.34 7.98 1 9 C2.98 9 4.96 9 7 9 C7.33 6.36 7.66 3.72 8 1 C5.36 1 2.72 1 0 1 C0 0.67 0 0.34 0 0 Z " fill="#248C01" transform="translate(191,201)"/>
<path d="M0 0 C2.60423592 -0.02697137 5.20819244 -0.04682489 7.8125 -0.0625 C8.55048828 -0.07087891 9.28847656 -0.07925781 10.04882812 -0.08789062 C13.29922068 -0.10259828 15.89404895 -0.03531702 19 1 C19 1.99 19 2.98 19 4 C12.4 4 5.8 4 -1 4 C-0.67 2.68 -0.34 1.36 0 0 Z " fill="#387917" transform="translate(32,107)"/>
<path d="M0 0 C3.3 0 6.6 0 10 0 C8.68 0.33 7.36 0.66 6 1 C5.34 3.31 4.68 5.62 4 8 C5.65 8 7.3 8 9 8 C8.67 8.66 8.34 9.32 8 10 C5.36 10 2.72 10 0 10 C0 6.7 0 3.4 0 0 Z " fill="#54DF1A" transform="translate(201,341)"/>
<path d="M0 0 C0 5.28 0 10.56 0 16 C-0.99 16 -1.98 16 -3 16 C-4.67099977 16.31088368 -6.33871537 16.64080332 -8 17 C-8 16.01 -8 15.02 -8 14 C-6.68 14 -5.36 14 -4 14 C-4 9.71 -4 5.42 -4 1 C-1 0 -1 0 0 0 Z " fill="#54E514" transform="translate(215,328)"/>
<path d="M0 0 C3.3 0 6.6 0 10 0 C8.68 0.33 7.36 0.66 6 1 C5.34 3.31 4.68 5.62 4 8 C5.65 8 7.3 8 9 8 C8.67 8.66 8.34 9.32 8 10 C5.36 10 2.72 10 0 10 C0 6.7 0 3.4 0 0 Z " fill="#54DF1A" transform="translate(201,261)"/>
<path d="M0 0 C0 5.28 0 10.56 0 16 C-0.99 16 -1.98 16 -3 16 C-4.67099977 16.31088368 -6.33871537 16.64080332 -8 17 C-8 16.01 -8 15.02 -8 14 C-6.68 14 -5.36 14 -4 14 C-4 9.71 -4 5.42 -4 1 C-1 0 -1 0 0 0 Z " fill="#54E514" transform="translate(215,248)"/>
<path d="M0 0 C3.3 0 6.6 0 10 0 C8.68 0.33 7.36 0.66 6 1 C5.34 3.31 4.68 5.62 4 8 C5.65 8 7.3 8 9 8 C8.67 8.66 8.34 9.32 8 10 C5.36 10 2.72 10 0 10 C0 6.7 0 3.4 0 0 Z " fill="#54DF1A" transform="translate(201,181)"/>
<path d="M0 0 C0 5.28 0 10.56 0 16 C-0.99 16 -1.98 16 -3 16 C-4.67099977 16.31088368 -6.33871537 16.64080332 -8 17 C-8 16.01 -8 15.02 -8 14 C-6.68 14 -5.36 14 -4 14 C-4 9.71 -4 5.42 -4 1 C-1 0 -1 0 0 0 Z " fill="#54E514" transform="translate(215,168)"/>
<path d="M0 0 C6.6 0 13.2 0 20 0 C19.67 0.99 19.34 1.98 19 3 C12.73 3 6.46 3 0 3 C0 2.01 0 1.02 0 0 Z " fill="#65CE39" transform="translate(141,131)"/>
<path d="M0 0 C2.97 0 5.94 0 9 0 C7 2 7 2 3.875 2.125 C2.451875 2.063125 2.451875 2.063125 1 2 C1.33 3.32 1.66 4.64 2 6 C6.61507774 7.04214691 6.61507774 7.04214691 11 6 C11.33 7.32 11.66 8.64 12 10 C8.04 10 4.08 10 0 10 C0 6.7 0 3.4 0 0 Z " fill="#58DD20" transform="translate(211,61)"/>
<path d="M0 0 C3.3 0 6.6 0 10 0 C10 3.3 10 6.6 10 10 C6.7 10 3.4 10 0 10 C0 9.34 0 8.68 0 8 C1.98 8 3.96 8 6 8 C6 5.69 6 3.38 6 1 C4.02 1 2.04 1 0 1 C0 0.67 0 0.34 0 0 Z " fill="#228B01" transform="translate(191,341)"/>
<path d="M0 0 C3.3 0 6.6 0 10 0 C10 3.3 10 6.6 10 10 C6.7 10 3.4 10 0 10 C0 9.34 0 8.68 0 8 C1.98 8 3.96 8 6 8 C6 5.69 6 3.38 6 1 C4.02 1 2.04 1 0 1 C0 0.67 0 0.34 0 0 Z " fill="#228B01" transform="translate(191,261)"/>
<path d="M0 0 C3.3 0 6.6 0 10 0 C10 3.3 10 6.6 10 10 C6.7 10 3.4 10 0 10 C0 9.34 0 8.68 0 8 C1.98 8 3.96 8 6 8 C6 5.69 6 3.38 6 1 C4.02 1 2.04 1 0 1 C0 0.67 0 0.34 0 0 Z " fill="#228B01" transform="translate(191,181)"/>
<path d="M0 0 C0.66 0 1.32 0 2 0 C3.60053875 7.98529659 3.60053875 7.98529659 1.1875 12.0625 C-1 14 -1 14 -3 14 C-3 13.01 -3 12.02 -3 11 C-3.99 11 -4.98 11 -6 11 C-6.33 11.66 -6.66 12.32 -7 13 C-7.99 12.67 -8.98 12.34 -10 12 C-10 11.01 -10 10.02 -10 9 C-6.7 9 -3.4 9 0 9 C0 6.03 0 3.06 0 0 Z " fill="#52DE1D" transform="translate(211,352)"/>
<path d="M0 0 C0.99 0 1.98 0 3 0 C2.814375 0.928125 2.62875 1.85625 2.4375 2.8125 C1.75876119 6.01343771 1.75876119 6.01343771 3 9 C7.455 8.505 7.455 8.505 12 8 C13.35015859 12.05047576 12.62084998 14.7920168 12 19 C11.34 19 10.68 19 10 19 C10 16.03 10 13.06 10 10 C6.7 10 3.4 10 0 10 C0 6.7 0 3.4 0 0 Z " fill="#58DC23" transform="translate(201,301)"/>
<path d="M0 0 C0.66 0 1.32 0 2 0 C3.60053875 7.98529659 3.60053875 7.98529659 1.1875 12.0625 C-1 14 -1 14 -3 14 C-3 13.01 -3 12.02 -3 11 C-3.99 11 -4.98 11 -6 11 C-6.33 11.66 -6.66 12.32 -7 13 C-7.99 12.67 -8.98 12.34 -10 12 C-10 11.01 -10 10.02 -10 9 C-6.7 9 -3.4 9 0 9 C0 6.03 0 3.06 0 0 Z " fill="#52DE1D" transform="translate(211,272)"/>
<path d="M0 0 C0.99 0 1.98 0 3 0 C2.814375 0.928125 2.62875 1.85625 2.4375 2.8125 C1.75876119 6.01343771 1.75876119 6.01343771 3 9 C7.455 8.505 7.455 8.505 12 8 C13.35015859 12.05047576 12.62084998 14.7920168 12 19 C11.34 19 10.68 19 10 19 C10 16.03 10 13.06 10 10 C6.7 10 3.4 10 0 10 C0 6.7 0 3.4 0 0 Z " fill="#58DC23" transform="translate(201,221)"/>
<path d="M0 0 C0.66 0 1.32 0 2 0 C3.60053875 7.98529659 3.60053875 7.98529659 1.1875 12.0625 C-1 14 -1 14 -3 14 C-3 13.01 -3 12.02 -3 11 C-3.99 11 -4.98 11 -6 11 C-6.33 11.66 -6.66 12.32 -7 13 C-7.99 12.67 -8.98 12.34 -10 12 C-10 11.01 -10 10.02 -10 9 C-6.7 9 -3.4 9 0 9 C0 6.03 0 3.06 0 0 Z " fill="#52DE1D" transform="translate(211,192)"/>
<path d="M0 0 C3.3 0 6.6 0 10 0 C10 0.66 10 1.32 10 2 C8.02 2 6.04 2 4 2 C4 2.66 4 3.32 4 4 C3.34 4 2.68 4 2 4 C3.32 5.32 4.64 6.64 6 8 C6.66 7.67 7.32 7.34 8 7 C8.33 7.99 8.66 8.98 9 10 C6.03 10 3.06 10 0 10 C0 6.7 0 3.4 0 0 Z " fill="#57DE26" transform="translate(211,81)"/>
<path d="M0 0 C2.64 0 5.28 0 8 0 C8 0.66 8 1.32 8 2 C6.68 2 5.36 2 4 2 C4.54723683 5.37462715 5.0549 7.08235 7 10 C4.69 10 2.38 10 0 10 C0 6.7 0 3.4 0 0 Z " fill="#56DE24" transform="translate(201,321)"/>
<path d="M0 0 C2.64 0 5.28 0 8 0 C8 0.66 8 1.32 8 2 C6.68 2 5.36 2 4 2 C4.54723683 5.37462715 5.0549 7.08235 7 10 C4.69 10 2.38 10 0 10 C0 6.7 0 3.4 0 0 Z " fill="#56DE24" transform="translate(201,241)"/>
<path d="M0 0 C2.64 0 5.28 0 8 0 C8 0.66 8 1.32 8 2 C6.68 2 5.36 2 4 2 C4.54723683 5.37462715 5.0549 7.08235 7 10 C4.69 10 2.38 10 0 10 C0 6.7 0 3.4 0 0 Z " fill="#56DE24" transform="translate(201,161)"/>
<path d="M0 0 C1.32 0 2.64 0 4 0 C4 3.3 4 6.6 4 10 C0.37 10 -3.26 10 -7 10 C-6.67 9.01 -6.34 8.02 -6 7 C-3.9375 6.3125 -3.9375 6.3125 -2 6 C-2 6.66 -2 7.32 -2 8 C-1.01 8 -0.02 8 1 8 C1.33 6.68 1.66 5.36 2 4 C1.34 3.67 0.68 3.34 0 3 C0 2.01 0 1.02 0 0 Z " fill="#1B8A00" transform="translate(207,61)"/>
<path d="M0 0 C1.32 0.33 2.64 0.66 4 1 C4 2.98 4 4.96 4 7 C1.36 7.33 -1.28 7.66 -4 8 C-4 6.68 -4 5.36 -4 4 C-3.34 4 -2.68 4 -2 4 C-2 3.34 -2 2.68 -2 2 C-1.34 2 -0.68 2 0 2 C0 1.34 0 0.68 0 0 Z " fill="#258A03" transform="translate(215,93)"/>
<path d="M0 0 C3.3 0 6.6 0 10 0 C9.67 0.99 9.34 1.98 9 3 C6.69 2.34 4.38 1.68 2 1 C2 3.64 2 6.28 2 9 C6.82442184 7.73053486 6.82442184 7.73053486 10 4 C10 5.98 10 7.96 10 10 C6.7 10 3.4 10 0 10 C0 6.7 0 3.4 0 0 Z " fill="#5BD728" transform="translate(191,371)"/>
<path d="M0 0 C3.3 0 6.6 0 10 0 C9.67 0.99 9.34 1.98 9 3 C6.69 2.34 4.38 1.68 2 1 C2 3.64 2 6.28 2 9 C6.82442184 7.73053486 6.82442184 7.73053486 10 4 C10 5.98 10 7.96 10 10 C6.7 10 3.4 10 0 10 C0 6.7 0 3.4 0 0 Z " fill="#5BD728" transform="translate(191,291)"/>
<path d="M0 0 C3.3 0 6.6 0 10 0 C9.67 0.99 9.34 1.98 9 3 C6.69 2.34 4.38 1.68 2 1 C2 3.64 2 6.28 2 9 C6.82442184 7.73053486 6.82442184 7.73053486 10 4 C10 5.98 10 7.96 10 10 C6.7 10 3.4 10 0 10 C0 6.7 0 3.4 0 0 Z " fill="#5BD728" transform="translate(191,211)"/>
<path d="M0 0 C0.66 0 1.32 0 2 0 C2 0.66 2 1.32 2 2 C4.64 2 7.28 2 10 2 C10.33 2.66 10.66 3.32 11 4 C7.7 4 4.4 4 1 4 C1 4.66 1 5.32 1 6 C5.29 6 9.58 6 14 6 C14 6.33 14 6.66 14 7 C9.38 7 4.76 7 0 7 C-1.04449911 3.86650268 -0.93423645 3.01031744 0 0 Z " fill="#51E311" transform="translate(133,102)"/>
<path d="M0 0 C3.3 0 6.6 0 10 0 C10 3.3 10 6.6 10 10 C6.7 10 3.4 10 0 10 C0 9.67 0 9.34 0 9 C2.64 8.67 5.28 8.34 8 8 C7.67 6.35 7.34 4.7 7 3 C4.69 2.34 2.38 1.68 0 1 C0 0.67 0 0.34 0 0 Z " fill="#238F00" transform="translate(191,381)"/>
<path d="M0 0 C3.3 0 6.6 0 10 0 C10 3.3 10 6.6 10 10 C6.7 10 3.4 10 0 10 C0 6.7 0 3.4 0 0 Z M1 3 C0.7499227 5.54190002 0.7499227 5.54190002 1 8 C2.11836224 9.34404775 2.11836224 9.34404775 5 9.125 C7.88163776 9.34404775 7.88163776 9.34404775 9 8 C9.04092937 5.66702567 9.04241723 3.33294775 9 1 C4.50695418 0.57496554 4.50695418 0.57496554 1 3 Z " fill="#5CD32C" transform="translate(191,351)"/>
<path d="M0 0 C3.3 0 6.6 0 10 0 C10 3.3 10 6.6 10 10 C6.7 10 3.4 10 0 10 C0 6.7 0 3.4 0 0 Z M1 3 C0.7499227 5.54190002 0.7499227 5.54190002 1 8 C2.11836224 9.34404775 2.11836224 9.34404775 5 9.125 C7.88163776 9.34404775 7.88163776 9.34404775 9 8 C9.04092937 5.66702567 9.04241723 3.33294775 9 1 C4.50695418 0.57496554 4.50695418 0.57496554 1 3 Z " fill="#5CD32C" transform="translate(191,271)"/>
<path d="M0 0 C3.3 0 6.6 0 10 0 C10 3.3 10 6.6 10 10 C6.7 10 3.4 10 0 10 C0 6.7 0 3.4 0 0 Z M1 3 C0.7499227 5.54190002 0.7499227 5.54190002 1 8 C2.11836224 9.34404775 2.11836224 9.34404775 5 9.125 C7.88163776 9.34404775 7.88163776 9.34404775 9 8 C9.04092937 5.66702567 9.04241723 3.33294775 9 1 C4.50695418 0.57496554 4.50695418 0.57496554 1 3 Z " fill="#5CD32C" transform="translate(191,191)"/>
<path d="M0 0 C3.3 0 6.6 0 10 0 C9.34 2.97 8.68 5.94 8 9 C7.34 7.68 6.68 6.36 6 5 C5.01 5 4.02 5 3 5 C3 4.01 3 3.02 3 2 C2.01 2 1.02 2 0 2 C0 1.34 0 0.68 0 0 Z " fill="#357B14" transform="translate(131,131)"/>
<path d="M0 0 C1.32 0.33 2.64 0.66 4 1 C3.01 1 2.02 1 1 1 C1.33 2.98 1.66 4.96 2 7 C4.97 7.495 4.97 7.495 8 8 C8.2502157 5.08365871 8.2502157 5.08365871 8 2 C7.01 1.34 6.02 0.68 5 0 C6.65 0 8.3 0 10 0 C10 3.3 10 6.6 10 10 C6.7 10 3.4 10 0 10 C0 6.7 0 3.4 0 0 Z " fill="#5AD62F" transform="translate(201,51)"/>
<path d="M0 0 C3.3 0 6.6 0 10 0 C10 2.97 10 5.94 10 9 C9.34 9 8.68 9 8 9 C8.33 6.69 8.66 4.38 9 2 C6.36 2.33 3.72 2.66 1 3 C1.33 4.98 1.66 6.96 2 9 C1.34 9 0.68 9 0 9 C0 6.03 0 3.06 0 0 Z " fill="#66D13B" transform="translate(211,131)"/>
<path d="M0 0 C0.66 0 1.32 0 2 0 C2 0.99 2 1.98 2 3 C2.66 3.33 3.32 3.66 4 4 C4.33 4.66 4.66 5.32 5 6 C6.65 5.01 8.3 4.02 10 3 C9.34 4.65 8.68 6.3 8 8 C5.36 8 2.72 8 0 8 C0 5.36 0 2.72 0 0 Z " fill="#218A00" transform="translate(221,133)"/>
<path d="M0 0 C1.66611905 -0.042721 3.33382885 -0.04063832 5 0 C6 1 6 1 6.0625 3.5625 C6.041875 4.366875 6.02125 5.17125 6 6 C4.02 6 2.04 6 0 6 C0 4.02 0 2.04 0 0 Z " fill="#53E108" transform="translate(203,73)"/>
<path d="M0 0 C1.66611905 -0.042721 3.33382885 -0.04063832 5 0 C6 1 6 1 6.0625 3.5625 C6.041875 4.366875 6.02125 5.17125 6 6 C4.33388095 6.042721 2.66617115 6.04063832 1 6 C0 5 0 5 -0.0625 2.4375 C-0.041875 1.633125 -0.02125 0.82875 0 0 Z " fill="#4CE908" transform="translate(193,153)"/>
<path d="M0 0 C2.31 0 4.62 0 7 0 C6.34 0.66 5.68 1.32 5 2 C4.34 1.67 3.68 1.34 3 1 C2.20046862 4.28696233 1.90341064 5.71023192 3 9 C4.98 8.67 6.96 8.34 9 8 C7 10 7 10 3.375 10.125 C2.26125 10.08375 1.1475 10.0425 0 10 C0 6.7 0 3.4 0 0 Z " fill="#56DD26" transform="translate(201,141)"/>
<path d="M0 0 C2.31 0.33 4.62 0.66 7 1 C7 2.32 7 3.64 7 5 C4.69 5.33 2.38 5.66 0 6 C0 4.02 0 2.04 0 0 Z " fill="#248405" transform="translate(213,53)"/>
<path d="M0 0 C0 0.66 0 1.32 0 2 C-5.28 2 -10.56 2 -16 2 C-16 1.34 -16 0.68 -16 0 C-13.7089095 -0.19441368 -11.41709663 -0.38033135 -9.125 -0.5625 C-7.21074219 -0.71912109 -7.21074219 -0.71912109 -5.2578125 -0.87890625 C-2 -1 -2 -1 0 0 Z " fill="#58E10B" transform="translate(240,104)"/>
<path d="M0 0 C0.33 0.99 0.66 1.98 1 3 C1.61875 2.835 2.2375 2.67 2.875 2.5 C5 2 5 2 7 2 C7.33 2.99 7.66 3.98 8 5 C5.04335481 6.4783226 2.25770263 6.06032783 -1 6 C-1.042721 4.33388095 -1.04063832 2.66617115 -1 1 C-0.67 0.67 -0.34 0.34 0 0 Z " fill="#5AE31B" transform="translate(202,365)"/>
<path d="M0 0 C1.65 0 3.3 0 5 0 C5.33 1.32 5.66 2.64 6 4 C3 6 3 6 0 6 C0 4.02 0 2.04 0 0 Z " fill="#288306" transform="translate(203,313)"/>
<path d="M0 0 C0.33 0.99 0.66 1.98 1 3 C1.61875 2.835 2.2375 2.67 2.875 2.5 C5 2 5 2 7 2 C7.33 2.99 7.66 3.98 8 5 C5.04335481 6.4783226 2.25770263 6.06032783 -1 6 C-1.042721 4.33388095 -1.04063832 2.66617115 -1 1 C-0.67 0.67 -0.34 0.34 0 0 Z " fill="#5AE31B" transform="translate(202,285)"/>
<path d="M0 0 C1.65 0 3.3 0 5 0 C5.33 1.32 5.66 2.64 6 4 C3 6 3 6 0 6 C0 4.02 0 2.04 0 0 Z " fill="#288306" transform="translate(203,233)"/>
<path d="M0 0 C0.33 0.99 0.66 1.98 1 3 C1.61875 2.835 2.2375 2.67 2.875 2.5 C5 2 5 2 7 2 C7.33 2.99 7.66 3.98 8 5 C5.04335481 6.4783226 2.25770263 6.06032783 -1 6 C-1.042721 4.33388095 -1.04063832 2.66617115 -1 1 C-0.67 0.67 -0.34 0.34 0 0 Z " fill="#5AE31B" transform="translate(202,205)"/>
<path d="M0 0 C0.66 0.33 1.32 0.66 2 1 C2 1.99 2 2.98 2 4 C-0.52475462 5.26237731 -2.31200466 5.09856404 -5.125 5.0625 C-6.03507813 5.05347656 -6.94515625 5.04445313 -7.8828125 5.03515625 C-8.58148438 5.02355469 -9.28015625 5.01195312 -10 5 C-9.67 4.34 -9.34 3.68 -9 3 C-6.93359375 2.5859375 -6.93359375 2.5859375 -4.4375 2.375 C-3.61121094 2.30023437 -2.78492188 2.22546875 -1.93359375 2.1484375 C-0.97646484 2.07496094 -0.97646484 2.07496094 0 2 C0 1.34 0 0.68 0 0 Z " fill="#50E40A" transform="translate(257,14)"/>
<path d="M0 0 C1.65 0.33 3.3 0.66 5 1 C5 1.99 5 2.98 5 4 C5.66 4 6.32 4 7 4 C6.67 4.99 6.34 5.98 6 7 C6 6.34 6 5.68 6 5 C3.69 5.66 1.38 6.32 -1 7 C-1.33 5.35 -1.66 3.7 -2 2 C-1.34 2 -0.68 2 0 2 C0 1.34 0 0.68 0 0 Z " fill="#49E00A" transform="translate(203,362)"/>
<path d="M0 0 C0 3.3 0 6.6 0 10 C-0.99 9.67 -1.98 9.34 -3 9 C-4.1875 5.4375 -4.1875 5.4375 -5 2 C-1.125 0 -1.125 0 0 0 Z " fill="#248C02" transform="translate(191,351)"/>
<path d="M0 0 C1.65 0.33 3.3 0.66 5 1 C5 1.99 5 2.98 5 4 C5.66 4 6.32 4 7 4 C6.67 4.99 6.34 5.98 6 7 C6 6.34 6 5.68 6 5 C3.69 5.66 1.38 6.32 -1 7 C-1.33 5.35 -1.66 3.7 -2 2 C-1.34 2 -0.68 2 0 2 C0 1.34 0 0.68 0 0 Z " fill="#49E00A" transform="translate(203,282)"/>
<path d="M0 0 C0 3.3 0 6.6 0 10 C-0.99 9.67 -1.98 9.34 -3 9 C-4.1875 5.4375 -4.1875 5.4375 -5 2 C-1.125 0 -1.125 0 0 0 Z " fill="#248C02" transform="translate(191,271)"/>
<path d="M0 0 C1.65 0.33 3.3 0.66 5 1 C5 1.99 5 2.98 5 4 C5.66 4 6.32 4 7 4 C6.67 4.99 6.34 5.98 6 7 C6 6.34 6 5.68 6 5 C3.69 5.66 1.38 6.32 -1 7 C-1.33 5.35 -1.66 3.7 -2 2 C-1.34 2 -0.68 2 0 2 C0 1.34 0 0.68 0 0 Z " fill="#49E00A" transform="translate(203,202)"/>
<path d="M0 0 C0 3.3 0 6.6 0 10 C-0.99 9.67 -1.98 9.34 -3 9 C-4.1875 5.4375 -4.1875 5.4375 -5 2 C-1.125 0 -1.125 0 0 0 Z " fill="#248C02" transform="translate(191,191)"/>
<path d="M0 0 C1.125 3.75 1.125 3.75 0 6 C-1.65 6 -3.3 6 -5 6 C-5 4.35 -5 2.7 -5 1 C-3 0 -3 0 0 0 Z " fill="#4BE409" transform="translate(208,93)"/>
<path d="M0 0 C2.31 0 4.62 0 7 0 C7 2.31 7 4.62 7 7 C6.01 6.67 5.02 6.34 4 6 C4 4.68 4 3.36 4 2 C2.35 2.33 0.7 2.66 -1 3 C-0.67 2.01 -0.34 1.02 0 0 Z " fill="#57DF24" transform="translate(204,91)"/>
<path d="M0 0 C1.65 0 3.3 0 5 0 C5 1.98 5 3.96 5 6 C3.35 5.67 1.7 5.34 0 5 C0 3.35 0 1.7 0 0 Z " fill="#4CE90A" transform="translate(193,313)"/>
<path d="M0 0 C1.65 0 3.3 0 5 0 C5 1.98 5 3.96 5 6 C3.35 5.67 1.7 5.34 0 5 C0 3.35 0 1.7 0 0 Z " fill="#4CE90A" transform="translate(193,233)"/>
<path d="M0 0 C0.33 0.66 0.66 1.32 1 2 C1.66 2 2.32 2 3 2 C3.33 2.66 3.66 3.32 4 4 C6.54941373 4.31241371 9.00361513 4.51303421 11.5625 4.625 C12.27341797 4.66367188 12.98433594 4.70234375 13.71679688 4.7421875 C15.47742425 4.83671783 17.23867728 4.91945817 19 5 C19 5.33 19 5.66 19 6 C13.06 6 7.12 6 1 6 C0.67 4.02 0.34 2.04 0 0 Z " fill="#6FC84A" transform="translate(12,105)"/>
<path d="M0 0 C2.5625 0.25 2.5625 0.25 5.5625 2.25 C5.5625 2.91 5.5625 3.57 5.5625 4.25 C2.2625 4.25 -1.0375 4.25 -4.4375 4.25 C-4.4375 0.9990044 -3.06444721 0.31430228 0 0 Z " fill="#377C1B" transform="translate(125.4375,106.75)"/>
<path d="M0 0 C0.99 0 1.98 0 3 0 C3 1.65 3 3.3 3 5 C0 6 0 6 -3 6 C-3 4.68 -3 3.36 -3 2 C-2.01 2 -1.02 2 0 2 C0 1.34 0 0.68 0 0 Z " fill="#2A8104" transform="translate(207,373)"/>
<path d="M0 0 C0.99 0 1.98 0 3 0 C3 1.65 3 3.3 3 5 C0 6 0 6 -3 6 C-3 4.68 -3 3.36 -3 2 C-2.01 2 -1.02 2 0 2 C0 1.34 0 0.68 0 0 Z " fill="#2A8104" transform="translate(207,293)"/>
<path d="M0 0 C0.99 0 1.98 0 3 0 C3 1.65 3 3.3 3 5 C0 6 0 6 -3 6 C-3 4.68 -3 3.36 -3 2 C-2.01 2 -1.02 2 0 2 C0 1.34 0 0.68 0 0 Z " fill="#2A8104" transform="translate(207,213)"/>
<path d="M0 0 C3.3 0 6.6 0 10 0 C10 2.64 10 5.28 10 8 C9.34 8 8.68 8 8 8 C8.33 6.35 8.66 4.7 9 3 C4.545 2.01 4.545 2.01 0 1 C0 0.67 0 0.34 0 0 Z " fill="#1D9000" transform="translate(191,141)"/>
<path d="M0 0 C1.32 0.33 2.64 0.66 4 1 C4.33 2.65 4.66 4.3 5 6 C3.35 6 1.7 6 0 6 C0 4.02 0 2.04 0 0 Z " fill="#288207" transform="translate(203,353)"/>
<path d="M0 0 C1.32 0.33 2.64 0.66 4 1 C4.33 2.65 4.66 4.3 5 6 C3.35 6 1.7 6 0 6 C0 4.02 0 2.04 0 0 Z " fill="#288207" transform="translate(203,273)"/>
<path d="M0 0 C1.32 0.33 2.64 0.66 4 1 C4.33 2.65 4.66 4.3 5 6 C3.35 6 1.7 6 0 6 C0 4.02 0 2.04 0 0 Z " fill="#288207" transform="translate(203,193)"/>
<path d="M0 0 C0.33 0 0.66 0 1 0 C1 2.31 1 4.62 1 7 C-1.64 7 -4.28 7 -7 7 C-6.01 5.68 -5.02 4.36 -4 3 C-3.01 3.33 -2.02 3.66 -1 4 C-0.67 2.68 -0.34 1.36 0 0 Z " fill="#208F01" transform="translate(210,134)"/>
<path d="M0 0 C3.3 0 6.6 0 10 0 C10 2.31 10 4.62 10 7 C9.34 7 8.68 7 8 7 C7.34 5.02 6.68 3.04 6 1 C4.02 1 2.04 1 0 1 C0 0.67 0 0.34 0 0 Z " fill="#218B00" transform="translate(201,101)"/>
<path d="M0 0 C0.99 0 1.98 0 3 0 C2.814375 0.556875 2.62875 1.11375 2.4375 1.6875 C1.91625645 4.44264447 2.2042131 6.32326225 3 9 C3.66 9.33 4.32 9.66 5 10 C3.35 10 1.7 10 0 10 C0 6.7 0 3.4 0 0 Z " fill="#5CD92B" transform="translate(201,341)"/>
<path d="M0 0 C0.99 0 1.98 0 3 0 C4.35015859 4.05047576 3.62084998 6.7920168 3 11 C2.34 11 1.68 11 1 11 C1 8.03 1 5.06 1 2 C0.34 1.67 -0.32 1.34 -1 1 C-0.67 0.67 -0.34 0.34 0 0 Z " fill="#50DD1B" transform="translate(210,309)"/>
<path d="M0 0 C0.99 0 1.98 0 3 0 C2.814375 0.556875 2.62875 1.11375 2.4375 1.6875 C1.91625645 4.44264447 2.2042131 6.32326225 3 9 C3.66 9.33 4.32 9.66 5 10 C3.35 10 1.7 10 0 10 C0 6.7 0 3.4 0 0 Z " fill="#5CD92B" transform="translate(201,261)"/>
<path d="M0 0 C0.99 0 1.98 0 3 0 C4.35015859 4.05047576 3.62084998 6.7920168 3 11 C2.34 11 1.68 11 1 11 C1 8.03 1 5.06 1 2 C0.34 1.67 -0.32 1.34 -1 1 C-0.67 0.67 -0.34 0.34 0 0 Z " fill="#50DD1B" transform="translate(210,229)"/>
<path d="M0 0 C0.99 0 1.98 0 3 0 C2.814375 0.556875 2.62875 1.11375 2.4375 1.6875 C1.91625645 4.44264447 2.2042131 6.32326225 3 9 C3.66 9.33 4.32 9.66 5 10 C3.35 10 1.7 10 0 10 C0 6.7 0 3.4 0 0 Z " fill="#5CD92B" transform="translate(201,181)"/>
<path d="M0 0 C1.65 0 3.3 0 5 0 C5.33 0.99 5.66 1.98 6 3 C4.02 3.99 2.04 4.98 0 6 C0 4.02 0 2.04 0 0 Z " fill="#2A8209" transform="translate(203,153)"/>
<path d="M0 0 C2.97 0.495 2.97 0.495 6 1 C5.67 2.32 5.34 3.64 5 5 C3.35 5 1.7 5 0 5 C0 3.35 0 1.7 0 0 Z " fill="#4CE40A" transform="translate(203,54)"/>
<path d="M0 0 C0.99 0 1.98 0 3 0 C3 2.64 3 5.28 3 8 C2.34 8 1.68 8 1 8 C0.67 8.99 0.34 9.98 0 11 C0 7.37 0 3.74 0 0 Z " fill="#5FDC22" transform="translate(201,381)"/>
<path d="M0 0 C0.99 0.33 1.98 0.66 3 1 C3.33 3.31 3.66 5.62 4 8 C2.35 7.01 0.7 6.02 -1 5 C-0.67 3.35 -0.34 1.7 0 0 Z " fill="#49E10C" transform="translate(214,82)"/>
<path d="M0 0 C0.99 0 1.98 0 3 0 C3 1.65 3 3.3 3 5 C1.35 5 -0.3 5 -2 5 C-1.125 1.125 -1.125 1.125 0 0 Z " fill="#4BEA07" transform="translate(195,353)"/>
<path d="M0 0 C0 1.98 0 3.96 0 6 C-1.32 6.33 -2.64 6.66 -4 7 C-4 5.02 -4 3.04 -4 1 C-1 0 -1 0 0 0 Z " fill="#278509" transform="translate(210,332)"/>
<path d="M0 0 C0.99 0 1.98 0 3 0 C3 1.65 3 3.3 3 5 C1.35 5 -0.3 5 -2 5 C-1.125 1.125 -1.125 1.125 0 0 Z " fill="#4BEA07" transform="translate(195,273)"/>
<path d="M0 0 C0 1.98 0 3.96 0 6 C-1.32 6.33 -2.64 6.66 -4 7 C-4 5.02 -4 3.04 -4 1 C-1 0 -1 0 0 0 Z " fill="#278509" transform="translate(210,252)"/>
<path d="M0 0 C0.99 0 1.98 0 3 0 C3 1.65 3 3.3 3 5 C1.35 5 -0.3 5 -2 5 C-1.125 1.125 -1.125 1.125 0 0 Z " fill="#4BEA07" transform="translate(195,193)"/>
<path d="M0 0 C0 1.98 0 3.96 0 6 C-1.32 6.33 -2.64 6.66 -4 7 C-4 5.02 -4 3.04 -4 1 C-1 0 -1 0 0 0 Z " fill="#278509" transform="translate(210,172)"/>
<path d="M0 0 C2.875 -0.1875 2.875 -0.1875 6 0 C6.66 0.99 7.32 1.98 8 3 C7.67 3.99 7.34 4.98 7 6 C6.34 5.34 5.68 4.68 5 4 C3.9790625 3.7834375 3.9790625 3.7834375 2.9375 3.5625 C2.298125 3.376875 1.65875 3.19125 1 3 C0.67 2.01 0.34 1.02 0 0 Z " fill="#49E00A" transform="translate(204,346)"/>
<path d="M0 0 C2.875 -0.1875 2.875 -0.1875 6 0 C6.66 0.99 7.32 1.98 8 3 C7.67 3.99 7.34 4.98 7 6 C6.34 5.34 5.68 4.68 5 4 C3.9790625 3.7834375 3.9790625 3.7834375 2.9375 3.5625 C2.298125 3.376875 1.65875 3.19125 1 3 C0.67 2.01 0.34 1.02 0 0 Z " fill="#49E00A" transform="translate(204,266)"/>
<path d="M0 0 C2.875 -0.1875 2.875 -0.1875 6 0 C6.66 0.99 7.32 1.98 8 3 C7.67 3.99 7.34 4.98 7 6 C6.34 5.34 5.68 4.68 5 4 C3.9790625 3.7834375 3.9790625 3.7834375 2.9375 3.5625 C2.298125 3.376875 1.65875 3.19125 1 3 C0.67 2.01 0.34 1.02 0 0 Z " fill="#49E00A" transform="translate(204,186)"/>
<path d="M0 0 C2.475 0.99 2.475 0.99 5 2 C5 2.66 5 3.32 5 4 C2.03 4 -0.94 4 -4 4 C-2.68 2.68 -1.36 1.36 0 0 Z " fill="#1D1D1E" transform="translate(257,127)"/>
<path d="M0 0 C1.32 0 2.64 0 4 0 C4 2.31 4 4.62 4 7 C3.01 7.33 2.02 7.66 1 8 C0.3125 6.1875 0.3125 6.1875 0 4 C1.4375 2.25 1.4375 2.25 3 1 C2.01 0.67 1.02 0.34 0 0 Z " fill="#288808" transform="translate(205,43)"/>
<path d="M0 0 C0.99 0 1.98 0 3 0 C3 2.64 3 5.28 3 8 C2.01 8 1.02 8 0 8 C0 5.36 0 2.72 0 0 Z " fill="#57E51E" transform="translate(221,92)"/>
<path d="M0 0 C0.99 0 1.98 0 3 0 C3 1.98 3 3.96 3 6 C2.01 6 1.02 6 0 6 C0 4.02 0 2.04 0 0 Z " fill="#308113" transform="translate(215,93)"/>
<path d="" fill="#FFFFFF" transform="translate(0,0)"/>
</svg>
